<?xml version="1.0" encoding="utf-8"?>
<!-- Generator: Adobe Illustrator 23.0.1, SVG Export Plug-In . SVG Version: 6.00 Build 0)  -->
<svg version="1.1" id="Laag_1" xmlns="http://www.w3.org/2000/svg" xmlns:xlink="http://www.w3.org/1999/xlink" x="0px" y="0px"
	 viewBox="0 0 195.5 188.4" style="enable-background:new 0 0 195.5 188.4;" xml:space="preserve">
<style type="text/css">
	.st0{fill:#FFFFFF;}
	.st1{fill:#EF7B0F;}
</style>
<path d="M181.2,117c0.3,3.4-1.2,4.1-8.7,3.8c-13.8-0.6-139-0.5-152.9-0.4c-6,0.1-7.6-0.5-8.2-3.2c-0.1-0.7,0.2-34.8,0.4-35.5
	c0.4-1.4,2-2,5-2c5.8,0,5.7,0,11.5-0.1c8.9-0.1,135-0.3,143.9-0.4c8.2-0.2,8.6,0,9,3.6c0,0.2,0.1,0.4,0.1,0.5L181.2,117L181.2,117z"
	/>
<path d="M106.4,82.2c0.2,3.8-0.6,4.6-4.6,4.3c-7.4-0.7-73.9-0.6-81.1-0.4c-3.2,0.1-4.1-0.6-4.3-3.6c-0.1-0.8,0.1-39.3,0.2-40.1
	c0.2-1.6,1.1-2.2,2.7-2.2c3,0,3,0,6-0.1c4.7-0.1,71.7-0.3,76.4-0.4c4.3-0.2,4.6,0.1,4.8,4.1c0,0.2,0.1,0.4,0.1,0.6L106.4,82.2
	L106.4,82.2z"/>
<path d="M185,153.6c0.2,3.6-0.8,4.2-5.8,3.9c-9.1-0.6-91.7-0.5-100.8-0.4c-4,0.1-5.1-0.5-5.4-3.3c-0.1-0.7,0.1-35.9,0.2-36.6
	c0.3-1.4,1.3-2,3.3-2c3.8,0,3.7,0,7.5-0.1c5.9-0.1,89-0.3,94.9-0.4c5.4-0.2,5.7,0,5.9,3.7c0,0.2,0.1,0.4,0.1,0.5V153.6L185,153.6z"
	/>
<path class="st0" d="M72.5,46.7c3.8-0.1,4.6,0.6,4.3,4.5c-0.7,7.1-0.6,11.2-0.4,18.3c0.1,3.1-0.6,3.9-3.6,4.2
	c-0.8,0-1.6-0.1-2.4-0.2c-1.6-0.2-2.2-1.1-2.2-2.6c0-2.9,0-2.9-0.1-5.9c-0.1-4.5-0.3-9.1-0.4-13.7c-0.2-4.2,0-4.4,4.1-4.6
	c0.2,0,0.4-0.1,0.6-0.1H72.5L72.5,46.7z"/>
<path class="st0" d="M71.9,114.7c-3.8,0.1-4.6-0.6-4.3-4.5c0.6-7.1,0.6-11.2,0.4-18.3c-0.1-3.1,0.6-3.9,3.6-4.2
	c0.8,0,1.6,0.1,2.4,0.2c1.6,0.2,2.2,1.1,2.2,2.6c0.1,2.9,0.1,2.9,0.1,5.9c0.1,4.6,0.3,9.1,0.4,13.8c0.2,4.2-0.1,4.4-4.1,4.6
	c-0.2,0-0.4,0.1-0.6,0.1L71.9,114.7L71.9,114.7z"/>
<path class="st0" d="M32.9,114.3c-8.4-0.1-14.6-7.3-14.1-16c0.4-7.8,6.3-13.5,13.3-14c5.1-0.4,9.1,1.9,12.5,5.3
	c0.1,0.1,0.2,0.4,0.3,0.5c0.4,2-0.8,3.2-2,4.3c-1.2,0.9-2.3,2.4-4.1,1.2c-0.5-0.4-1.1-0.9-1.6-1.3C34,92,28,93.8,26.8,97.5
	c-0.8,2.5,0.2,6.4,2.2,7.9c2.6,1.9,6,2,8.3-0.3c2.5-2.5,4.2-2,6.5-0.3c2,1.3,2.2,2.8,0.6,4.7c-2.7,3.3-6.2,4.6-10.3,4.7
	C33.7,114.4,33.2,114.3,32.9,114.3z"/>
<path class="st0" d="M56.2,114.5h-6.1c-2-0.1-2.4-0.4-2.8-2.3c-0.2-0.8-0.4-1.6-0.4-2.4c0.6-6.6,0.5-13.2-0.1-19.8
	c-0.4-4.9,0.3-5.6,5.1-5.5c3.3,0,3.6,0.3,3.6,3.5c0,5.2-0.1,10.5-0.2,15.7c0,2,0.4,2.5,2.3,2.6c1.7,0.1,3.4-0.1,5.1-0.1
	c2,0.1,2.4,0.5,2.8,2.4c0.4,1.4,0,2.8-0.1,4.1c-0.1,1.3-1.2,1.7-2.5,1.7c-2.2-0.1-4.3-0.1-6.6-0.1C56.2,114.2,56.2,114.5,56.2,114.5
	z"/>
<path class="st0" d="M87.9,104.3c-0.8,2-0.2,3.7-0.4,5.5c-0.1,1,0,2-0.1,3c0,0.9-0.5,1.3-1.4,1.4c-0.1,0-0.2,0-0.3,0.1
	c-5.1,0.7-5.7,0.2-5.7-4.9C80,104,80,98.7,79.9,93.3c0-2.1-0.1-4.2-0.2-6.2c-0.1-1.5,0.7-2.2,2-2.3c1.1-0.1,2.2-0.1,3.3-0.2
	c2-0.2,3.1,0.7,3.8,2.5c1.6,3.7,3,7.5,4.4,11.4c0.4,1,0.5,2.1,1.6,3.1c1.3-3.2,2.8-6.3,4.1-9.4c0.5-1.3,1.1-2.7,1.8-4.1
	c0.5-1.2,0.8-2.8,2.4-3.2c2-0.4,4.2-0.4,6.2,0.3c1.1,0.4,0.9,1.4,0.9,2.3c-0.1,3.4-0.1,6.7-0.3,10.1c-0.2,4.3-0.3,8.7,0,13
	c0.1,0.7,0.1,1.4-0.1,2c-0.1,0.4-0.3,1-0.7,1.2c-0.7,0.7-5.5,0.6-6.3-0.1c-0.7-0.6-0.6-1.4-0.5-2.2c0.2-1.2,0-2.6,0.3-3.8
	s0.1-2.5,0.1-3.7c-1.1-0.3-1.1,0.5-1.2,1c-1.2,2.5-2.4,5.1-3.6,7.5c-1.3,2.5-4.3,2.5-5.6-0.1c-1.1-2.2-2-4.5-2.9-6.8
	C88.9,105.3,88.8,104.7,87.9,104.3z"/>
<path class="st0" d="M144.3,84.7c2.4,0,4.8,0,7.2,0c2.4,0,2.8,0.5,2.9,3c0.1,1,0.1,2-0.1,2.9c-0.3,2.4-0.7,2.8-3.2,2.9
	c-2.1,0.1-2.6,0.6-2.6,2.8c0.1,4.8-0.3,9.5,0.2,14.3c0.4,3-0.6,3.9-3.6,4h-0.6c-3.8,0.1-4.3-0.4-4.4-4.1c-0.1-4.6,0.1-9.2,0.1-13.8
	c-0.1-2.6-0.2-2.8-2.6-2.8c-2.8-0.2-3.3-0.5-3.6-3.3c-0.1-0.8-0.1-1.6-0.1-2.4c-0.2-2.6,0.5-3.4,3.1-3.4
	C139.6,84.7,142,84.7,144.3,84.7z"/>
<path class="st0" d="M156.7,103.4c0.5-4.6,0.1-9.8-0.2-14.9c0-0.6-0.1-1.2,0.1-1.8c0.2-1.8,0.7-2.5,2.4-2.3c4.3,0.3,8.7,0.2,13,0.1
	c2.3,0,3.2,0.9,3.2,3.3c0.1,0.7,0,1.4-0.1,2c-0.4,2.4-1.3,3.1-3.6,2.7c-1.4-0.2-2.8-0.1-4.2-0.2c-0.5,0-1.2,0.1-1.7,0.3
	c-0.8,0.4-1.2,1-1.1,2c0.2,0.8,0.8,1.1,1.5,1.1c1.3,0,2.6-0.1,3.8-0.2c1.3-0.2,2.9-0.7,3.7,0.9c0.8,1.8,0.6,3.7-0.1,5.5
	c-0.4,0.8-1.3,1.1-2.3,1.2c-1.5,0.1-2.9-0.3-4.4-0.3c-2-0.1-2.6,0.6-2.4,2.4c0.1,1.1,0.6,1.7,1.7,1.6c2-0.1,4-0.1,5.9-0.1
	c2.5,0,2.9,0.5,3,2.9c0.1,4.5-0.1,4.8-4.7,4.8c-3.5,0-6.9,0-10.4-0.1c-2.8,0-3.4-0.4-3.4-3.2L156.7,103.4L156.7,103.4z"/>
<path class="st0" d="M93.8,133.1c0.4,0.1,0.8,0,1.2,0c4.5-0.2,5.3,0.7,4.7,5.3c-0.3,2-0.9,2.7-2.8,2.6c-1.6-0.1-3.1-0.4-4.7-0.4
	c-2.9,0-3.3,0.4-3.2,3.2c0,1.5-0.1,2.9-0.1,4.4c0,0.8-0.2,1.6-0.8,2.1c-1.1,0.9-5.8,1-6.9,0.2c-0.8-0.6-0.5-1.4-0.5-2.2
	c0-3.3,0.1-6.5,0.1-9.8c-0.1-4.7-0.2-9.5-0.3-14.2c-0.1-2.9,0.4-3.6,3.4-3.5c4.1,0.2,8.2,0.4,12.4,0.1c2.6-0.1,3.4,1.1,3.2,3.7
	c-0.4,5.1,0.1,5.2-5.9,5.1c-1,0-2-0.1-2.9,0c-1.2,0.1-1.5,1.1-1.4,2.2c0.1,1.1,0.8,1.5,1.9,1.3C91.9,133.2,92.9,133.2,93.8,133.1z"
	/>
<path class="st0" d="M117,131.2c0-2.5-0.1-5,0-7.5c0.1-2.6,0.7-3.2,3.1-3.4c1-0.1,2,0.1,2.9,0.1c2.4,0.1,3.2,0.9,2.9,3.4
	c-0.5,5.1-0.6,10.3-0.4,15.4c0.4,8.4-5,11.4-10.7,11.8c-5.5,0.4-12.1-2.5-11.7-10.3c0.2-5.1,0.2-10.3-0.4-15.4c-0.1-1,0-2,0.2-2.9
	c0.2-1.2,0.8-2,2.1-2c1.5,0,3-0.1,4.5-0.1c1.7,0.1,2.7,0.9,2.6,2.6c-0.1,3.4,0.2,6.7-0.4,10c-0.4,2.4-0.1,4.7,0.2,7.1
	c0.2,1.3,0.7,2,2,2c1.2,0.1,2.7-1,2.8-2.1c0.2-2.2,0.2-4.3,0.2-6.6C117.2,132.8,117.1,132,117,131.2z"/>
<path class="st0" d="M145.2,134.5c0.6-0.4,0.8-0.9,0.7-1.5c0-2.8,0-5.2-0.4-8.3c0-3.7,0.1-3.7,2.8-3.9c1.8,0,2.8-0.1,4.3,0.1
	c1.5,0.2,1.9,1.3,1.8,2.8c-0.4,7.6-0.6,14.7-0.6,24.1c0,2.2-0.2,2.6-2.4,2.8c-4.7,0-4.4,0.6-6.3-2.8c-1.9-2.9-4-5.6-5.6-8.6
	c-0.3-0.5-0.8-1-1.4-0.8c-0.6,0.2-0.8,0.8-0.8,1.4c0.1,2.5,0.1,4.9,0.2,7.5c0.1,2.9-0.4,3.5-3.4,3.5c-5,0.1-5.1,0.1-5.1-4.9
	c0.1-14.8,0.1-7.6-0.2-21.7c-0.1-2.6,0.7-3.3,3.3-3.5c4.3,0,4.3,0,6.8,4.1c1.3,3,3.2,5.7,5,8.4C144.3,133.8,144.6,134.3,145.2,134.5
	z"/>
<path class="st0" d="M156.5,124.8c0-3.4,0.6-4,3.9-3.9c2.6,0.1,5.1,0.1,7.5,0.4c5.6,0.6,8.8,3.6,10.2,8.8c1.6,5.8,1.3,11.5-2.8,16.5
	c-2.2,2.7-5.1,3.7-8.4,4.1c-2.4,0.1-4.7,0.2-7,0.2c-3.1,0.1-3.6-0.4-3.5-3.6c0.2-3.7,0.4-7.5,0.1-11.3L156.5,124.8L156.5,124.8z
	 M164.7,137.6c-0.1,0.9-0.1,1.5-0.2,2.1c-0.2,1.1-0.4,2.2,0.7,2.9s2.3,0.1,3.4-0.4c1-0.4,1.6-1.3,2-2.4c0.8-2.6,0.8-5.3,0-7.9
	c-0.5-1.7-2.8-2.8-4.4-2.6c-1,0.1-1.6,0.7-1.3,1.6C165.2,133.4,164.2,135.7,164.7,137.6z"/>
<path class="st0" d="M34.9,58.9c4.5-0.2,5.3,0.7,4.7,5.3c-0.3,2-2.5,2.1-2.5,2.1h-2c0,0-3.2-0.9-3.2,3.2c0,1.5-0.1,2.9-0.1,4.4
	c0,0.9-0.2,1.6-0.9,2.1c-1.1,0.9-5.8,1-6.9,0.2c-0.8-0.6-0.5-1.4-0.5-2.2c0-3.3,0.1-6.5,0.1-9.8c-0.1-4.7-0.2-9.5-0.3-14.2
	c-0.1-2.9,0.4-3.6,3.4-3.5c4.1,0.2,8.2,0.4,12.4,0.1c2.6-0.1,3.4,1.1,3.2,3.7c-0.4,5.1,0.2,5.3-5.9,5.1c-1,0-2,0-2.9,0
	c-1.2,0.1-1.5,1.1-1.4,2.2c0.1,1.1,0.8,1.5,1.9,1.3C34.8,59,34.5,58.9,34.9,58.9z"/>
<path class="st0" d="M65.1,73.2c-0.2-0.7-0.4-1.3-0.7-2c-2.3-5.6-4.4-11.4-6.2-17.1c-0.4-1.7-0.7-3.1-1.6-4.9
	c-0.6-1-1.1-2.4-2.4-2.6c-4.3-0.3-5.5,0.4-6.5,4.3c-1,3.2-2,6.8-3.2,9.9c-1.8,4.4-3.3,8.9-5.3,13.1c-0.2,0.4-0.5,1.5-0.5,2.4
	c-0.3,0.7,3.6,0.4,5.1,0.4c2.1-0.1,2.7,0.4,2.7-1.7c0.7-2,2-2.6,3.7-2.6c0.8,0,1.7,0,3.1,0c0.7,0,2,0.1,3.2,0.2
	c1.1,0.1,1.9,0.5,2,1.8c0.4,2.7,1.1,2.7,3.6,2.5C65.5,77,66,76.5,65.1,73.2z"/>
<path class="st0" d="M100.9,73.7c-1-2.8-3.1-5.1-4.6-7.5c-0.8-1.3-1-2.2,0.4-3.3c3.3-2.5,3.6-6.2,2.8-9.7c-0.6-2.9-2.5-5.4-5.8-6.2
	c-4.3-0.6-8.3-0.4-12.4-0.3c-1.5,0.1-2.3,1-2.4,2.5c-0.1,0.7,0.1,1.4,0.1,2c0.4,6.9,0.4,13.8,0.3,20.9C79.2,76.6,79,77,84,77
	c0.2,0,0.4,0,0.6,0c3.2,0,3.2-0.8,3.3-3.5c0.1-1.6-0.4-3.3,0.1-5.1c1.5,0.5,1.7,2,2.2,2.8c3.3,6.1,1.7,5.6,8.7,5.6
	C101.6,77.1,101.9,76.5,100.9,73.7z"/>
<path class="st0" d="M137.8,110.9c-0.2-0.7-0.4-1.3-0.7-2c-2.3-5.6-4.4-11.4-6.2-17.1c-0.4-1.7-0.7-3.1-1.6-4.9
	c-0.6-1-1.1-2.4-2.4-2.6c-4.3-0.3-5.5,0.4-6.5,4.3c-1,3.2-2,6.8-3.2,9.9c-1.9,4.4-3.3,8.9-5.4,13.1c-0.2,0.4-0.5,1.5-0.5,2.4
	c-0.3,0.7,3.6,0.4,5.1,0.4c2.1-0.1,2.8,0.4,2.8-1.7c0.7-2,2-2.6,3.7-2.6c0.8-0.1,1.7-0.1,3.1-0.1c0.7,0,1.9,0.1,3.2,0.2
	c1.1,0.1,1.9,0.5,2,1.8c0.4,2.8,1.1,2.7,3.6,2.5C138.2,114.7,138.7,114.2,137.8,110.9z"/>
<g>
	<path class="st1" d="M73.2,76.6c4.4-0.2,4,8.2,0.5,8.4h-2.8c-1.8,0-2.7-2.3-2.8-3.1c-0.2-1.2-0.7-5,4-5.2c0.3,0,0.5,0,0.7-0.1H73.2
		z"/>
</g>
</svg>
